<svg width="120" height="120" viewBox="0 0 120 120" fill="none" xmlns="http://www.w3.org/2000/svg">
  <!-- Bouclier -->
  <path d="M60 15 L100 35 V65 C100 90 80 105 60 110 C40 105 20 90 20 65 V35 Z" fill="#e0e7ef" stroke="#3b82f6" stroke-width="3"/>
  <!-- Circuit électronique (traits) -->
  <circle cx="60" cy="60" r="28" stroke="#10b981" stroke-width="2" fill="none"/>
  <line x1="60" y1="32" x2="60" y2="15" stroke="#10b981" stroke-width="2"/>
  <line x1="60" y1="88" x2="60" y2="110" stroke="#10b981" stroke-width="2"/>
  <line x1="32" y1="60" x2="20" y2="60" stroke="#10b981" stroke-width="2"/>
  <line x1="88" y1="60" x2="100" y2="60" stroke="#10b981" stroke-width="2"/>
  <!-- Ticket stylisé -->
  <rect x="40" y="50" width="40" height="28" rx="6" fill="#fff" stroke="#6366f1" stroke-width="2"/>
  <circle cx="50" cy="64" r="3" fill="#3b82f6"/>
  <circle cx="70" cy="64" r="3" fill="#3b82f6"/>
  <!-- Outil (clé) -->
  <path d="M80 45 L90 35 M90 35 Q92 33 90 31 Q88 29 86 31 Q84 33 86 35 L76 45" stroke="#6366f1" stroke-width="2" fill="none"/>
  <!-- Outil (tournevis) -->
  <rect x="30" y="80" width="8" height="22" rx="3" fill="#3b82f6"/>
  <rect x="32" y="100" width="4" height="8" rx="2" fill="#6366f1"/>
</svg>
